<?xml version="1.0" encoding="UTF-8" standalone="no"?>
<svg
   width="24"
   height="24"
   viewBox="0 0 24 24"
   fill="none"
   stroke="currentColor"
   stroke-width="2"
   stroke-linecap="round"
   stroke-linejoin="round"
   class="lucide lucide-car-front"
   version="1.1"
   id="svg5"
   sodipodi:docname="stadtmobil_karlsruhe.svg"
   inkscape:version="1.3.2 (091e20ef0f, 2023-11-25)"
   xmlns:inkscape="http://www.inkscape.org/namespaces/inkscape"
   xmlns:sodipodi="http://sodipodi.sourceforge.net/DTD/sodipodi-0.dtd"
   xmlns="http://www.w3.org/2000/svg"
   xmlns:svg="http://www.w3.org/2000/svg">
  <defs
     id="defs5">
    <inkscape:path-effect
       effect="fillet_chamfer"
       id="path-effect1"
       is_visible="true"
       lpeversion="1"
       nodesatellites_param="F,0,0,1,0,4.9783594,0,1 @ F,0,0,1,0,4.4702637,0,1 @ F,0,0,1,0,3.8099863,0,1 @ F,0,0,1,0,3.9753439,0,1"
       radius="0"
       unit="px"
       method="auto"
       mode="F"
       chamfer_steps="1"
       flexible="false"
       use_knot_distance="true"
       apply_no_radius="true"
       apply_with_radius="true"
       only_selected="false"
       hide_knots="false" />
  </defs>
  <sodipodi:namedview
     id="namedview5"
     pagecolor="#ffffff"
     bordercolor="#000000"
     borderopacity="0.25"
     inkscape:showpageshadow="2"
     inkscape:pageopacity="0.0"
     inkscape:pagecheckerboard="0"
     inkscape:deskcolor="#d1d1d1"
     inkscape:zoom="23.71754"
     inkscape:cx="7.2941798"
     inkscape:cy="13.513206"
     inkscape:window-width="1920"
     inkscape:window-height="1011"
     inkscape:window-x="0"
     inkscape:window-y="0"
     inkscape:window-maximized="1"
     inkscape:current-layer="layer1" />
  <g
     inkscape:groupmode="layer"
     id="layer1"
     inkscape:label="Back">
    <path
       style="fill:#ff7c1e;fill-opacity:1;stroke:#ff0000;stroke-width:0;stroke-linejoin:round;stroke-dasharray:none"
       id="rect1"
       width="24"
       height="24"
       x="0"
       y="0"
       inkscape:path-effect="#path-effect1"
       sodipodi:type="rect"
       d="M 4.9783594,0 H 19.529736 A 4.4702637,4.4702637 45 0 1 24,4.4702637 V 20.190014 A 3.8099863,3.8099863 135 0 1 20.190014,24 H 3.9753439 A 3.9753439,3.9753439 45 0 1 0,20.024656 V 4.9783594 A 4.9783594,4.9783594 135 0 1 4.9783594,0 Z" />
  </g>
  <path
     d="m21 8-2 2-1.5-3.7A2 2 0 0 0 15.646 5H8.4a2 2 0 0 0-1.903 1.257L5 10 3 8"
     id="path1"
     style="stroke:#000000;stroke-opacity:1" />
  <path
     d="M7 14h.01"
     id="path2"
     style="stroke:#000000;stroke-opacity:1" />
  <path
     d="M17 14h.01"
     id="path3"
     style="stroke:#000000;stroke-opacity:1" />
  <rect
     width="18"
     height="8"
     x="3"
     y="10"
     rx="2"
     id="rect3"
     style="stroke:#000000;stroke-opacity:1" />
  <path
     d="M5 18v2"
     id="path4"
     style="stroke:#000000;stroke-opacity:1" />
  <path
     d="M19 18v2"
     id="path5"
     style="stroke:#000000;stroke-opacity:1" />
</svg>
