<?xml version="1.0" encoding="UTF-8" standalone="no"?>
<svg
   width="24"
   height="24"
   viewBox="0 0 24 24"
   fill="none"
   stroke="currentColor"
   stroke-width="2"
   stroke-linecap="round"
   stroke-linejoin="round"
   class="lucide lucide-train-front-tunnel"
   version="1.1"
   id="svg7"
   sodipodi:docname="underground-tram.svg"
   inkscape:version="1.3.2 (091e20ef0f, 2023-11-25)"
   xmlns:inkscape="http://www.inkscape.org/namespaces/inkscape"
   xmlns:sodipodi="http://sodipodi.sourceforge.net/DTD/sodipodi-0.dtd"
   xmlns="http://www.w3.org/2000/svg"
   xmlns:svg="http://www.w3.org/2000/svg">
  <defs
     id="defs7">
    <inkscape:path-effect
       effect="fillet_chamfer"
       id="path-effect1"
       is_visible="true"
       lpeversion="1"
       nodesatellites_param="F,0,0,1,0,4.9783594,0,1 @ F,0,0,1,0,4.4702637,0,1 @ F,0,0,1,0,3.8099863,0,1 @ F,0,0,1,0,3.9753439,0,1"
       radius="0"
       unit="px"
       method="auto"
       mode="F"
       chamfer_steps="1"
       flexible="false"
       use_knot_distance="true"
       apply_no_radius="true"
       apply_with_radius="true"
       only_selected="false"
       hide_knots="false" />
  </defs>
  <sodipodi:namedview
     id="namedview7"
     pagecolor="#ffffff"
     bordercolor="#000000"
     borderopacity="0.25"
     inkscape:showpageshadow="2"
     inkscape:pageopacity="0.0"
     inkscape:pagecheckerboard="0"
     inkscape:deskcolor="#d1d1d1"
     inkscape:zoom="33.541667"
     inkscape:cx="12"
     inkscape:cy="12"
     inkscape:window-width="1499"
     inkscape:window-height="991"
     inkscape:window-x="26"
     inkscape:window-y="23"
     inkscape:window-maximized="0"
     inkscape:current-layer="svg7" />
  <path
     style="fill:#c30a37;fill-opacity:1;stroke:#ff0000;stroke-width:0;stroke-linejoin:round;stroke-dasharray:none"
     id="rect1-3"
     width="24"
     height="24"
     x="0"
     y="0"
     inkscape:path-effect="#path-effect1"
     sodipodi:type="rect"
     d="M 4.9783594,0 H 19.529736 A 4.4702637,4.4702637 45 0 1 24,4.4702637 V 20.190014 A 3.8099863,3.8099863 135 0 1 20.190014,24 H 3.9753439 A 3.9753439,3.9753439 45 0 1 0,20.024656 V 4.9783594 A 4.9783594,4.9783594 135 0 1 4.9783594,0 Z"
     transform="matrix(0.55745662,0.56006843,-0.55745662,0.56006843,12.080808,-1.6333026)" />
  <path
     d="M2 22V12a10 10 0 1 1 20 0v10"
     id="path1"
     style="stroke:#ffffff;stroke-opacity:1" />
  <path
     d="M15 6.8v1.4a3 2.8 0 1 1-6 0V6.8"
     id="path2"
     style="stroke:#ffffff;stroke-opacity:1" />
  <path
     d="M10 15h.01"
     id="path3"
     style="stroke:#ffffff;stroke-opacity:1" />
  <path
     d="M14 15h.01"
     id="path4"
     style="stroke:#ffffff;stroke-opacity:1" />
  <path
     d="M10 19a4 4 0 0 1-4-4v-3a6 6 0 1 1 12 0v3a4 4 0 0 1-4 4Z"
     id="path5"
     style="stroke:#ffffff;stroke-opacity:1" />
  <path
     d="m9 19-2 3"
     id="path6"
     style="stroke:#ffffff;stroke-opacity:1" />
  <path
     d="m15 19 2 3"
     id="path7"
     style="stroke:#ffffff;stroke-opacity:1" />
</svg>
